<svg xmlns="http://www.w3.org/2000/svg" xmlns:xlink="http://www.w3.org/1999/xlink" width="500" zoomAndPan="magnify" viewBox="0 0 375 225" height="300" preserveAspectRatio="xMidYMid meet" version="1.0"><defs><g/><clipPath id="b63194034b"><path d="M 58.648438 79.414062 L 277.648438 79.414062 L 277.648438 130.414062 L 58.648438 130.414062 Z M 58.648438 79.414062 " clip-rule="nonzero"/></clipPath></defs><g clip-path="url(#b63194034b)"><path fill="#000000" d="M 276.929688 114.121094 C 277.046875 113.988281 277.175781 113.867188 277.324219 113.769531 C 277.417969 113.621094 277.527344 113.484375 277.660156 113.367188 C 277.625 113.207031 277.589844 113.046875 277.554688 112.882812 C 277.410156 112.917969 277.253906 112.933594 277.085938 112.933594 C 276.972656 112.933594 276.863281 112.925781 276.757812 112.910156 C 276.757812 112.941406 276.757812 112.96875 276.761719 113 C 274.125 115.199219 271.222656 117.019531 268.121094 118.546875 C 265.984375 119.605469 263.761719 120.441406 261.484375 121.144531 C 257.929688 122.234375 254.328125 123.132812 250.636719 123.703125 C 249.070312 123.945312 247.492188 124.066406 245.910156 124.21875 C 242.253906 124.582031 238.585938 124.492188 234.941406 124.085938 C 230.507812 123.589844 226.164062 122.574219 221.953125 121.101562 C 216.632812 119.234375 211.5625 116.863281 206.726562 114 L 207.617188 113.574219 C 208.316406 113.207031 209.023438 112.859375 209.714844 112.484375 C 212.992188 110.714844 216.097656 108.679688 218.914062 106.238281 C 221.21875 104.242188 223.304688 102.046875 225.0625 99.546875 C 226.09375 98.074219 226.980469 96.523438 227.671875 94.855469 C 228.28125 93.386719 228.628906 91.871094 228.660156 90.28125 C 228.691406 88.730469 228.34375 87.269531 227.585938 85.921875 C 226.542969 84.070312 224.945312 82.828125 222.890625 82.332031 C 220.074219 81.652344 217.300781 81.847656 214.640625 83.121094 C 212.53125 84.132812 210.671875 85.460938 209.195312 87.292969 C 209.089844 87.417969 208.980469 87.546875 208.867188 87.675781 C 208.714844 87.851562 208.550781 87.851562 208.492188 87.667969 C 208.367188 87.238281 208.25 86.808594 208.105469 86.382812 C 207.285156 84.058594 205.824219 82.289062 203.601562 81.15625 C 202.902344 80.789062 202.175781 80.503906 201.421875 80.257812 C 198.859375 79.421875 196.40625 79.699219 194.070312 80.980469 C 191.695312 82.28125 190.113281 84.277344 189.230469 86.804688 C 188.375 89.238281 188.242188 91.742188 188.722656 94.273438 C 189.394531 97.792969 190.828125 101.003906 192.925781 103.914062 C 194.042969 105.464844 195.308594 106.890625 196.675781 108.238281 C 198.601562 110.140625 200.695312 111.835938 202.972656 113.308594 C 203.253906 113.488281 203.78125 113.867188 204.035156 114.070312 L 203.011719 114.574219 C 200.175781 115.6875 197.265625 116.558594 194.289062 117.230469 C 187.648438 118.730469 180.917969 119.101562 174.132812 118.71875 C 169.570312 118.464844 165.046875 117.820312 160.535156 117.132812 C 159.089844 116.910156 157.648438 116.636719 156.210938 116.363281 C 154.660156 116.074219 153.117188 115.738281 151.570312 115.441406 C 150.019531 115.144531 148.464844 114.867188 146.917969 114.574219 C 145.640625 114.332031 144.367188 114.085938 143.097656 113.828125 C 141.496094 113.515625 139.898438 113.179688 138.292969 112.878906 C 136.574219 112.554688 134.855469 112.253906 133.136719 111.949219 C 131.023438 111.585938 128.921875 111.160156 126.800781 110.882812 C 122.664062 110.335938 118.550781 109.644531 114.382812 109.300781 C 109.335938 108.820312 104.285156 108.292969 99.207031 108.25 C 96.949219 108.230469 94.699219 108.230469 92.445312 108.296875 C 89.230469 108.390625 86.042969 108.71875 82.863281 109.222656 C 79.804688 109.710938 76.773438 110.371094 73.84375 111.417969 C 71.503906 112.253906 69.277344 113.328125 67.234375 114.757812 C 65.222656 116.160156 63.558594 117.894531 62.234375 119.941406 C 61.167969 121.597656 60.289062 123.355469 59.644531 125.21875 C 59.332031 126.117188 59.082031 127.039062 58.832031 127.960938 C 58.65625 128.597656 58.828125 129.179688 59.261719 129.683594 C 59.746094 130.246094 60.652344 130.378906 61.253906 129.984375 C 61.851562 129.597656 62.101562 128.894531 61.882812 128.226562 C 61.84375 128.117188 61.808594 128.007812 61.761719 127.910156 C 61.339844 127.0625 61.34375 126.175781 61.527344 125.28125 C 61.613281 124.84375 61.703125 124.402344 61.820312 123.96875 C 62.417969 121.714844 63.441406 119.683594 64.996094 117.917969 C 66.351562 116.382812 67.949219 115.15625 69.71875 114.140625 C 71.875 112.890625 74.1875 112.011719 76.589844 111.363281 C 81.945312 109.898438 87.394531 109.152344 92.945312 109.0625 C 94.296875 109.039062 95.652344 109.074219 97.003906 109.039062 C 99.714844 108.964844 102.414062 109.167969 105.117188 109.292969 C 111.378906 109.589844 117.566406 110.53125 123.777344 111.3125 C 123.832031 111.320312 123.886719 111.332031 123.941406 111.335938 C 126.5 111.742188 129.0625 112.144531 131.617188 112.566406 C 133.34375 112.851562 135.054688 113.175781 136.777344 113.488281 C 137.941406 113.703125 139.097656 113.9375 140.257812 114.167969 C 141.808594 114.476562 143.351562 114.800781 144.898438 115.097656 C 146.449219 115.398438 148.003906 115.671875 149.550781 115.96875 C 152.257812 116.5 154.960938 117.082031 157.679688 117.546875 C 160.234375 117.984375 162.785156 118.46875 165.371094 118.722656 C 166.554688 118.839844 167.722656 119.019531 168.894531 119.167969 C 172.203125 119.589844 175.527344 119.710938 178.851562 119.765625 C 181.667969 119.816406 184.480469 119.628906 187.285156 119.3125 C 191.382812 118.851562 195.40625 118.054688 199.347656 116.832031 C 201.089844 116.292969 203.523438 115.417969 205.238281 114.707031 C 207.390625 115.976562 209.585938 117.160156 211.839844 118.242188 C 216.300781 120.390625 220.871094 122.234375 225.671875 123.488281 C 227.855469 124.058594 230.050781 124.59375 232.28125 124.925781 C 235.359375 125.382812 238.464844 125.589844 241.855469 125.507812 C 244.097656 125.5625 246.59375 125.308594 249.070312 124.96875 C 253.972656 124.308594 258.757812 123.097656 263.421875 121.421875 C 267.515625 119.949219 271.351562 117.972656 274.921875 115.492188 C 275.613281 115.011719 276.265625 114.496094 276.90625 113.976562 Z M 205.359375 113.152344 C 205.066406 112.992188 204.769531 112.828125 204.480469 112.648438 C 200.835938 110.34375 197.671875 107.5 194.992188 104.121094 C 192.9375 101.539062 191.488281 98.652344 190.628906 95.46875 C 190.171875 93.773438 189.953125 92.066406 190.140625 90.535156 C 190.261719 89.140625 190.433594 87.976562 190.890625 86.875 C 191.550781 85.285156 192.511719 83.921875 193.890625 82.878906 C 195.894531 81.347656 198.148438 80.929688 200.597656 81.5 C 201.761719 81.773438 202.839844 82.242188 203.84375 82.890625 C 205.679688 84.089844 206.828125 85.753906 207.261719 87.890625 C 207.464844 88.894531 207.488281 89.898438 207.035156 90.859375 C 206.816406 91.320312 206.664062 91.796875 206.691406 92.3125 C 206.703125 92.472656 206.773438 92.636719 206.84375 92.78125 C 206.921875 92.949219 207.300781 93.035156 207.433594 92.925781 C 207.519531 92.855469 207.621094 92.796875 207.691406 92.714844 C 208.226562 91.996094 208.769531 91.28125 209.292969 90.550781 C 209.585938 90.144531 209.839844 89.707031 210.117188 89.28125 C 211.433594 87.257812 213.1875 85.722656 215.289062 84.546875 C 216.488281 83.871094 217.773438 83.496094 219.132812 83.386719 C 220.261719 83.300781 221.390625 83.332031 222.5 83.585938 C 224.691406 84.078125 226.257812 85.339844 227.050781 87.449219 C 227.703125 89.191406 227.734375 90.960938 227.25 92.742188 C 226.929688 93.933594 226.464844 95.074219 225.886719 96.171875 C 224.8125 98.21875 223.488281 100.101562 221.953125 101.828125 C 219.484375 104.617188 216.660156 107.019531 213.542969 109.074219 C 211.425781 110.476562 209.230469 111.726562 206.945312 112.835938 C 206.691406 112.957031 206.054688 113.253906 205.792969 113.355469 C 205.792969 113.359375 205.628906 113.304688 205.359375 113.152344 Z M 205.359375 113.152344 " fill-opacity="1" fill-rule="nonzero"/></g><g fill="#0ea2bd" fill-opacity="1"><g transform="translate(277.504556, 125.286924)"><g><path d="M 7.183594 6.664062 C 11.871094 3.175781 18.484375 -8.488281 21.347656 -12.234375 C 21.347656 -12.496094 20.671875 -12.496094 20.464844 -12.289062 C 18.222656 -9.425781 10.726562 3.4375 6.25 6.40625 C 0.625 9.996094 1.875 -0.675781 2.1875 -3.59375 C 2.601562 -7.863281 3.4375 -12.339844 3.957031 -14.476562 C 20.984375 -33.585938 18.953125 -43.6875 13.695312 -43.6875 C 7.289062 -43.6875 2.550781 -30.929688 0.46875 -17.859375 C -0.363281 -12.601562 -0.730469 -7.238281 -0.625 -2.707031 C -0.574219 -0.15625 -0.574219 8.175781 3.59375 8.175781 C 4.582031 8.175781 5.78125 7.707031 7.183594 6.664062 Z M 4.113281 -15.828125 C 5.414062 -27.699219 9.683594 -42.332031 13.433594 -42.90625 C 17.859375 -43.269531 19.734375 -34.46875 4.113281 -15.828125 Z M 4.113281 -15.828125 "/></g></g></g><g fill="#0ea2bd" fill-opacity="1"><g transform="translate(297.758824, 125.286924)"><g><path d="M -1.457031 3.4375 C -16.507812 15.570312 -14.265625 33.0625 -8.589844 33.429688 C -1.769531 33.84375 0.519531 16.296875 2.03125 2.238281 C 4.945312 0.78125 13.953125 -5.207031 19.785156 -12.183594 C 19.785156 -12.445312 18.953125 -12.445312 18.796875 -12.234375 C 13.851562 -6.507812 5.46875 -0.574219 2.136719 1.25 C 2.863281 -5.570312 3.851562 -14.734375 4.269531 -17.753906 C 4.53125 -20.308594 0.574219 -20.046875 0.261719 -16.453125 C -0.625 -5.675781 -1.09375 -0.105469 -1.457031 3.4375 Z M -1.511719 4.582031 C -2.757812 16.089844 -4.320312 32.59375 -8.433594 32.59375 C -12.914062 32.59375 -14.839844 16.089844 -1.511719 4.582031 Z M 3.226562 -22.078125 C 4.738281 -22.078125 5.46875 -25.878906 4.113281 -26.292969 C 1.980469 -26.503906 1.40625 -22.078125 3.226562 -22.078125 Z M 3.226562 -22.078125 "/></g></g></g><g fill="#000000" fill-opacity="1"><g transform="translate(115.038263, 140.288896)"><g><path d="M 2.40625 -8.671875 L 2.40625 -1.125 L 6.828125 -1.125 L 6.828125 0 L 1.25 0 L 1.25 -8.671875 Z M 2.40625 -8.671875 "/></g></g></g><g fill="#000000" fill-opacity="1"><g transform="translate(125.587014, 140.288896)"><g><path d="M 2.40625 -8.671875 L 2.40625 0 L 1.25 0 L 1.25 -8.671875 Z M 2.40625 -8.671875 "/></g></g></g><g fill="#000000" fill-opacity="1"><g transform="translate(132.331749, 140.288896)"><g><path d="M 2.40625 -4.75 L 2.546875 -4.984375 L 6.09375 -8.671875 L 7.59375 -8.671875 L 4.015625 -4.953125 L 7.796875 0 L 6.328125 0 L 3.15625 -4.21875 L 2.421875 -3.5 L 2.4375 0 L 1.25 0 L 1.25 -8.671875 L 2.4375 -8.671875 L 2.4375 -5.1875 Z M 2.40625 -4.75 "/></g></g></g><g fill="#000000" fill-opacity="1"><g transform="translate(143.576496, 140.288896)"><g><path d="M 8.125 0 L 6.953125 0 L 6.953125 -3.796875 L 2.40625 -3.796875 L 2.40625 0 L 1.25 0 L 1.25 -8.671875 L 2.40625 -8.671875 L 2.40625 -4.921875 L 6.953125 -4.921875 L 6.953125 -8.671875 L 8.125 -8.671875 Z M 8.125 0 "/></g></g></g><g fill="#000000" fill-opacity="1"><g transform="translate(156.033252, 140.288896)"><g><path d="M 2.40625 -8.671875 L 2.40625 0 L 1.25 0 L 1.25 -8.671875 Z M 2.40625 -8.671875 "/></g></g></g><g fill="#000000" fill-opacity="1"><g transform="translate(162.777988, 140.288896)"><g/></g></g><g fill="#0ea2bd" fill-opacity="1"><g transform="translate(169.647635, 140.288896)"><g><path d="M 6.035156 -7.859375 C 6.023438 -7.824219 6 -7.824219 5.988281 -7.859375 C 5.363281 -9.253906 4.308594 -9.601562 3.445312 -9.601562 C 2.0625 -9.601562 0.910156 -8.328125 0.910156 -6.683594 C 0.910156 -4.894531 2.351562 -3.601562 3.265625 -2.722656 C 4.355469 -1.679688 5.542969 -0.238281 5.988281 0.492188 C 6 0.515625 6.023438 0.515625 6.035156 0.492188 C 6.480469 -0.238281 7.667969 -1.679688 8.761719 -2.722656 C 9.671875 -3.601562 11.113281 -4.882812 11.113281 -6.683594 C 11.113281 -8.328125 9.960938 -9.601562 8.578125 -9.601562 C 7.714844 -9.601562 6.648438 -9.238281 6.035156 -7.859375 Z M 10.585938 -6.683594 C 10.585938 -5.160156 9.226562 -3.910156 8.386719 -3.109375 C 7.367188 -2.148438 6.480469 -1.09375 6.035156 -0.40625 C 6.023438 -0.382812 6 -0.382812 5.988281 -0.40625 C 5.542969 -1.09375 4.667969 -2.136719 3.636719 -3.097656 C 2.808594 -3.898438 1.441406 -5.171875 1.441406 -6.683594 C 1.441406 -8.0625 2.375 -9.070312 3.445312 -9.070312 C 4.453125 -9.070312 5.089844 -8.578125 5.640625 -7.402344 C 5.722656 -7.199219 5.84375 -7.042969 6.011719 -7.042969 C 6.179688 -7.042969 6.300781 -7.199219 6.382812 -7.402344 C 6.9375 -8.578125 7.570312 -9.070312 8.578125 -9.070312 C 9.648438 -9.070312 10.585938 -8.0625 10.585938 -6.683594 Z M 10.585938 -6.683594 "/></g></g></g><g fill="#000000" fill-opacity="1"><g transform="translate(184.729666, 140.288896)"><g/></g></g><g fill="#000000" fill-opacity="1"><g transform="translate(191.606409, 140.288896)"><g><path d="M 3.125 -1.578125 C 3.125 -0.890625 2.992188 -0.296875 2.734375 0.203125 C 2.472656 0.703125 2.109375 1.085938 1.640625 1.359375 C 1.171875 1.628906 0.632812 1.769531 0.03125 1.78125 L 0.03125 0.65625 C 0.625 0.625 1.09375 0.414062 1.4375 0.03125 C 1.789062 -0.34375 1.96875 -0.890625 1.96875 -1.609375 L 1.96875 -8.671875 L 3.125 -8.671875 Z M 3.125 -1.578125 "/></g></g></g><g fill="#000000" fill-opacity="1"><g transform="translate(199.07115, 140.288896)"><g><path d="M 5.796875 -2.28125 L 2.453125 -2.28125 L 1.53125 0 L 0.390625 0 L 4.171875 -9.03125 L 4.25 -9.03125 L 8.046875 0 L 6.703125 0 Z M 5.40625 -3.28125 L 4.15625 -6.453125 L 2.875 -3.28125 Z M 5.40625 -3.28125 "/></g></g></g><g fill="#000000" fill-opacity="1"><g transform="translate(210.567895, 140.288896)"><g><path d="M 7.96875 -8.671875 L 4.71875 -2.890625 L 4.71875 0 L 3.546875 0 L 3.546875 -2.890625 L 0.34375 -8.671875 L 1.78125 -8.671875 L 4.15625 -4.21875 L 6.546875 -8.671875 Z M 7.96875 -8.671875 "/></g></g></g></svg>