<svg xmlns="http://www.w3.org/2000/svg" xmlns:xlink="http://www.w3.org/1999/xlink" width="500" zoomAndPan="magnify" viewBox="0 0 375 374.999991" height="500" preserveAspectRatio="xMidYMid meet" version="1.0"><defs><g/><clipPath id="8d114495ec"><path d="M 63.109375 139.460938 L 288.109375 139.460938 L 288.109375 191.960938 L 63.109375 191.960938 Z M 63.109375 139.460938 " clip-rule="nonzero"/></clipPath></defs><g clip-path="url(#8d114495ec)"><path fill="#000000" d="M 287.371094 175.191406 C 287.492188 175.054688 287.625 174.929688 287.777344 174.828125 C 287.871094 174.675781 287.984375 174.535156 288.125 174.414062 C 288.085938 174.25 288.050781 174.082031 288.015625 173.914062 C 287.863281 173.949219 287.703125 173.96875 287.53125 173.96875 C 287.414062 173.96875 287.304688 173.957031 287.195312 173.941406 C 287.195312 173.972656 287.195312 174.003906 287.195312 174.035156 C 284.492188 176.300781 281.507812 178.175781 278.320312 179.746094 C 276.125 180.835938 273.839844 181.695312 271.503906 182.421875 C 267.851562 183.542969 264.148438 184.46875 260.359375 185.054688 C 258.746094 185.304688 257.125 185.429688 255.503906 185.585938 C 251.742188 185.960938 247.976562 185.867188 244.230469 185.449219 C 239.675781 184.9375 235.214844 183.894531 230.886719 182.375 C 225.425781 180.453125 220.210938 178.011719 215.242188 175.0625 L 216.15625 174.628906 C 216.878906 174.246094 217.605469 173.890625 218.3125 173.503906 C 221.683594 171.679688 224.871094 169.589844 227.765625 167.070312 C 230.136719 165.019531 232.277344 162.757812 234.082031 160.183594 C 235.140625 158.667969 236.054688 157.070312 236.761719 155.351562 C 237.390625 153.839844 237.746094 152.28125 237.777344 150.644531 C 237.808594 149.046875 237.453125 147.542969 236.675781 146.15625 C 235.605469 144.25 233.960938 142.96875 231.851562 142.457031 C 228.957031 141.757812 226.105469 141.960938 223.375 143.269531 C 221.207031 144.3125 219.296875 145.679688 217.78125 147.566406 C 217.675781 147.699219 217.5625 147.828125 217.441406 147.960938 C 217.285156 148.140625 217.117188 148.140625 217.058594 147.953125 C 216.929688 147.507812 216.808594 147.066406 216.660156 146.628906 C 215.820312 144.238281 214.316406 142.414062 212.035156 141.246094 C 211.316406 140.871094 210.570312 140.578125 209.792969 140.324219 C 207.160156 139.460938 204.644531 139.75 202.242188 141.066406 C 199.800781 142.410156 198.175781 144.460938 197.269531 147.066406 C 196.390625 149.570312 196.253906 152.148438 196.75 154.753906 C 197.4375 158.378906 198.910156 161.683594 201.066406 164.679688 C 202.210938 166.277344 203.515625 167.746094 204.917969 169.132812 C 206.898438 171.09375 209.046875 172.835938 211.390625 174.351562 C 211.679688 174.539062 212.21875 174.925781 212.480469 175.136719 L 211.425781 175.65625 C 208.515625 176.800781 205.527344 177.699219 202.46875 178.390625 C 195.644531 179.933594 188.730469 180.316406 181.757812 179.921875 C 177.070312 179.660156 172.421875 178.996094 167.785156 178.292969 C 166.300781 178.0625 164.820312 177.78125 163.34375 177.5 C 161.753906 177.199219 160.167969 176.855469 158.574219 176.550781 C 156.984375 176.242188 155.386719 175.957031 153.796875 175.65625 C 152.488281 175.40625 151.175781 175.152344 149.875 174.890625 C 148.226562 174.566406 146.585938 174.222656 144.9375 173.910156 C 143.171875 173.578125 141.402344 173.265625 139.636719 172.953125 C 137.46875 172.578125 135.308594 172.140625 133.128906 171.855469 C 128.878906 171.292969 124.652344 170.582031 120.371094 170.226562 C 115.183594 169.730469 109.996094 169.1875 104.777344 169.144531 C 102.460938 169.125 100.148438 169.125 97.832031 169.195312 C 94.53125 169.289062 91.253906 169.625 87.988281 170.144531 C 84.84375 170.648438 81.730469 171.328125 78.722656 172.402344 C 76.316406 173.265625 74.03125 174.371094 71.933594 175.84375 C 69.863281 177.285156 68.15625 179.074219 66.792969 181.183594 C 65.699219 182.886719 64.796875 184.699219 64.132812 186.613281 C 63.8125 187.539062 63.554688 188.488281 63.300781 189.4375 C 63.117188 190.09375 63.292969 190.691406 63.738281 191.210938 C 64.238281 191.792969 65.167969 191.929688 65.785156 191.523438 C 66.398438 191.125 66.65625 190.398438 66.433594 189.710938 C 66.394531 189.597656 66.355469 189.488281 66.304688 189.386719 C 65.875 188.511719 65.878906 187.601562 66.066406 186.675781 C 66.15625 186.226562 66.25 185.773438 66.367188 185.328125 C 66.984375 183.007812 68.035156 180.914062 69.632812 179.097656 C 71.023438 177.515625 72.664062 176.257812 74.480469 175.207031 C 76.699219 173.921875 79.074219 173.015625 81.542969 172.347656 C 87.042969 170.84375 92.644531 170.074219 98.34375 169.980469 C 99.734375 169.957031 101.128906 169.992188 102.519531 169.957031 C 105.300781 169.882812 108.074219 170.085938 110.851562 170.21875 C 117.285156 170.523438 123.644531 171.492188 130.019531 172.296875 C 130.078125 172.304688 130.132812 172.316406 130.191406 172.324219 C 132.820312 172.742188 135.453125 173.152344 138.078125 173.589844 C 139.851562 173.882812 141.609375 174.214844 143.378906 174.539062 C 144.574219 174.757812 145.765625 175 146.957031 175.238281 C 148.546875 175.558594 150.132812 175.886719 151.722656 176.195312 C 153.3125 176.507812 154.910156 176.785156 156.503906 177.09375 C 159.285156 177.636719 162.058594 178.234375 164.855469 178.714844 C 167.480469 179.164062 170.097656 179.664062 172.753906 179.925781 C 173.96875 180.046875 175.171875 180.234375 176.375 180.382812 C 179.777344 180.820312 183.191406 180.945312 186.605469 181 C 189.5 181.050781 192.386719 180.859375 195.269531 180.53125 C 199.480469 180.058594 203.617188 179.242188 207.664062 177.980469 C 209.453125 177.421875 211.953125 176.523438 213.714844 175.792969 C 215.925781 177.097656 218.179688 178.316406 220.5 179.433594 C 225.078125 181.644531 229.777344 183.542969 234.707031 184.835938 C 236.949219 185.421875 239.207031 185.972656 241.5 186.316406 C 244.664062 186.785156 247.851562 186.996094 251.335938 186.914062 C 253.640625 186.96875 256.203125 186.707031 258.746094 186.359375 C 263.785156 185.679688 268.703125 184.429688 273.496094 182.707031 C 277.699219 181.1875 281.640625 179.152344 285.308594 176.597656 C 286.019531 176.105469 286.6875 175.574219 287.347656 175.039062 Z M 213.839844 174.191406 C 213.539062 174.027344 213.234375 173.859375 212.9375 173.671875 C 209.191406 171.300781 205.941406 168.371094 203.191406 164.894531 C 201.078125 162.234375 199.589844 159.261719 198.703125 155.984375 C 198.234375 154.242188 198.011719 152.480469 198.203125 150.90625 C 198.328125 149.46875 198.503906 148.273438 198.972656 147.136719 C 199.652344 145.5 200.640625 144.09375 202.058594 143.019531 C 204.117188 141.445312 206.429688 141.015625 208.949219 141.601562 C 210.144531 141.882812 211.253906 142.367188 212.28125 143.03125 C 214.167969 144.269531 215.351562 145.980469 215.796875 148.183594 C 216.003906 149.214844 216.027344 150.25 215.5625 151.238281 C 215.339844 151.710938 215.183594 152.207031 215.207031 152.738281 C 215.21875 152.898438 215.292969 153.066406 215.363281 153.21875 C 215.445312 153.390625 215.832031 153.480469 215.972656 153.367188 C 216.058594 153.292969 216.164062 153.234375 216.234375 153.148438 C 216.785156 152.410156 217.34375 151.675781 217.882812 150.917969 C 218.183594 150.5 218.445312 150.050781 218.726562 149.613281 C 220.082031 147.527344 221.882812 145.949219 224.039062 144.738281 C 225.273438 144.042969 226.597656 143.65625 227.992188 143.546875 C 229.152344 143.457031 230.3125 143.488281 231.453125 143.75 C 233.699219 144.257812 235.308594 145.554688 236.125 147.726562 C 236.796875 149.519531 236.828125 151.34375 236.332031 153.179688 C 236 154.402344 235.523438 155.578125 234.929688 156.707031 C 233.824219 158.816406 232.464844 160.753906 230.886719 162.53125 C 228.351562 165.40625 225.449219 167.878906 222.25 169.996094 C 220.074219 171.4375 217.820312 172.722656 215.46875 173.867188 C 215.207031 173.988281 214.554688 174.296875 214.285156 174.402344 C 214.285156 174.402344 214.117188 174.347656 213.839844 174.191406 Z M 213.839844 174.191406 " fill-opacity="1" fill-rule="nonzero"/></g><g fill="#000000" fill-opacity="1"><g transform="translate(284.01716, 189.225286)"><g><path d="M 8.550781 7.929688 C 14.128906 3.78125 21.996094 -10.101562 25.40625 -14.5625 C 25.40625 -14.871094 24.601562 -14.871094 24.351562 -14.625 C 21.6875 -11.214844 12.765625 4.089844 7.4375 7.621094 C 0.742188 11.898438 2.230469 -0.804688 2.601562 -4.277344 C 3.097656 -9.355469 4.089844 -14.6875 4.710938 -17.226562 C 24.972656 -39.96875 22.554688 -51.988281 16.296875 -51.988281 C 8.675781 -51.988281 3.035156 -36.808594 0.558594 -21.253906 C -0.433594 -14.996094 -0.867188 -8.613281 -0.742188 -3.222656 C -0.679688 -0.1875 -0.679688 9.726562 4.277344 9.726562 C 5.453125 9.726562 6.878906 9.171875 8.550781 7.929688 Z M 4.894531 -18.835938 C 6.445312 -32.964844 11.527344 -50.378906 15.988281 -51.058594 C 21.253906 -51.492188 23.484375 -41.019531 4.894531 -18.835938 Z M 4.894531 -18.835938 "/></g></g></g><g fill="#000000" fill-opacity="1"><g transform="translate(308.120755, 189.225286)"><g><path d="M -1.734375 4.089844 C -19.644531 18.527344 -16.976562 39.347656 -10.222656 39.78125 C -2.105469 40.277344 0.621094 19.394531 2.417969 2.664062 C 5.886719 0.929688 16.605469 -6.195312 23.546875 -14.5 C 23.546875 -14.808594 22.554688 -14.808594 22.371094 -14.5625 C 16.484375 -7.746094 6.507812 -0.679688 2.539062 1.488281 C 3.40625 -6.628906 4.585938 -17.535156 5.082031 -21.128906 C 5.390625 -24.167969 0.679688 -23.855469 0.308594 -19.582031 C -0.742188 -6.753906 -1.300781 -0.125 -1.734375 4.089844 Z M -1.796875 5.453125 C -3.285156 19.148438 -5.144531 38.789062 -10.039062 38.789062 C -15.367188 38.789062 -17.660156 19.148438 -1.796875 5.453125 Z M 3.84375 -26.273438 C 5.640625 -26.273438 6.507812 -30.796875 4.894531 -31.292969 C 2.355469 -31.539062 1.671875 -26.273438 3.84375 -26.273438 Z M 3.84375 -26.273438 "/></g></g></g><g fill="#000000" fill-opacity="1"><g transform="translate(99.145537, 205.241469)"><g><path d="M 2.703125 -9.71875 L 2.703125 -1.265625 L 7.65625 -1.265625 L 7.65625 0 L 1.40625 0 L 1.40625 -9.71875 Z M 2.703125 -9.71875 "/></g></g></g><g fill="#000000" fill-opacity="1"><g transform="translate(110.975493, 205.241469)"><g><path d="M 2.703125 -9.71875 L 2.703125 0 L 1.40625 0 L 1.40625 -9.71875 Z M 2.703125 -9.71875 "/></g></g></g><g fill="#000000" fill-opacity="1"><g transform="translate(118.539653, 205.241469)"><g><path d="M 2.6875 -5.328125 L 2.859375 -5.578125 L 6.828125 -9.71875 L 8.515625 -9.71875 L 4.5 -5.5625 L 8.75 0 L 7.09375 0 L 3.53125 -4.71875 L 2.71875 -3.921875 L 2.734375 0 L 1.40625 0 L 1.40625 -9.71875 L 2.734375 -9.71875 L 2.734375 -5.8125 Z M 2.6875 -5.328125 "/></g></g></g><g fill="#000000" fill-opacity="1"><g transform="translate(131.150097, 205.241469)"><g><path d="M 9.109375 0 L 7.796875 0 L 7.796875 -4.265625 L 2.703125 -4.265625 L 2.703125 0 L 1.40625 0 L 1.40625 -9.71875 L 2.703125 -9.71875 L 2.703125 -5.515625 L 7.796875 -5.515625 L 7.796875 -9.71875 L 9.109375 -9.71875 Z M 9.109375 0 "/></g></g></g><g fill="#000000" fill-opacity="1"><g transform="translate(145.119665, 205.241469)"><g><path d="M 2.703125 -9.71875 L 2.703125 0 L 1.40625 0 L 1.40625 -9.71875 Z M 2.703125 -9.71875 "/></g></g></g><g fill="#000000" fill-opacity="1"><g transform="translate(152.683826, 205.241469)"><g/></g></g><g fill="#000000" fill-opacity="1"><g transform="translate(160.396013, 205.241469)"><g><path d="M 6.769531 -8.734375 C 6.757812 -8.695312 6.730469 -8.695312 6.714844 -8.734375 C 6.082031 -10.242188 4.925781 -10.742188 3.875 -10.742188 C 2.328125 -10.742188 1.050781 -9.328125 1.050781 -7.484375 C 1.050781 -5.492188 2.652344 -4.050781 3.675781 -3.070312 C 4.898438 -1.898438 6.21875 -0.28125 6.714844 0.523438 C 6.730469 0.550781 6.757812 0.550781 6.769531 0.523438 C 7.269531 -0.28125 8.585938 -1.898438 9.8125 -3.070312 C 10.835938 -4.050781 12.4375 -5.476562 12.4375 -7.484375 C 12.4375 -9.328125 11.15625 -10.742188 9.609375 -10.742188 C 8.558594 -10.742188 7.375 -10.242188 6.769531 -8.734375 Z M 11.9375 -7.484375 C 11.9375 -5.746094 10.417969 -4.347656 9.476562 -3.417969 C 8.304688 -2.328125 7.253906 -1.089844 6.769531 -0.324219 C 6.757812 -0.296875 6.730469 -0.296875 6.714844 -0.324219 C 6.230469 -1.089844 5.183594 -2.328125 4.023438 -3.417969 C 3.070312 -4.332031 1.546875 -5.761719 1.546875 -7.484375 C 1.546875 -9.058594 2.609375 -10.253906 3.875 -10.253906 C 5.046875 -10.253906 5.8125 -9.636719 6.378906 -8.289062 C 6.472656 -8.0625 6.59375 -7.941406 6.742188 -7.941406 C 6.890625 -7.941406 7.011719 -8.0625 7.105469 -8.289062 C 7.671875 -9.636719 8.4375 -10.253906 9.609375 -10.253906 C 10.875 -10.253906 11.9375 -9.058594 11.9375 -7.484375 Z M 11.9375 -7.484375 "/></g></g></g><g fill="#000000" fill-opacity="1"><g transform="translate(177.312621, 205.241469)"><g/></g></g><g fill="#000000" fill-opacity="1"><g transform="translate(185.024805, 205.241469)"><g><path d="M 3.515625 -1.765625 C 3.515625 -0.992188 3.363281 -0.328125 3.0625 0.234375 C 2.769531 0.796875 2.359375 1.226562 1.828125 1.53125 C 1.304688 1.832031 0.710938 1.988281 0.046875 2 L 0.046875 0.734375 C 0.703125 0.703125 1.222656 0.472656 1.609375 0.046875 C 2.003906 -0.378906 2.203125 -0.992188 2.203125 -1.796875 L 2.203125 -9.71875 L 3.515625 -9.71875 Z M 3.515625 -1.765625 "/></g></g></g><g fill="#000000" fill-opacity="1"><g transform="translate(193.39637, 205.241469)"><g><path d="M 6.5 -2.5625 L 2.765625 -2.5625 L 1.71875 0 L 0.4375 0 L 4.6875 -10.125 L 4.765625 -10.125 L 9.015625 0 L 7.5 0 Z M 6.046875 -3.6875 L 4.671875 -7.234375 L 3.234375 -3.6875 Z M 6.046875 -3.6875 "/></g></g></g><g fill="#000000" fill-opacity="1"><g transform="translate(206.289405, 205.241469)"><g><path d="M 8.9375 -9.71875 L 5.28125 -3.234375 L 5.28125 0 L 3.984375 0 L 3.984375 -3.234375 L 0.375 -9.71875 L 1.984375 -9.71875 L 4.671875 -4.71875 L 7.328125 -9.71875 Z M 8.9375 -9.71875 "/></g></g></g></svg>